<svg width="18" height="18" viewBox="0 0 18 18" fill="none" xmlns="http://www.w3.org/2000/svg">
<path d="M14.6619 8.24749C14.3207 7.47942 13.8246 6.79005 13.2047 6.22249L12.6932 5.75315C12.6758 5.73765 12.6549 5.72666 12.6323 5.72112C12.6097 5.71559 12.586 5.71569 12.5635 5.72142C12.5409 5.72714 12.5201 5.73832 12.5029 5.75397C12.4856 5.76962 12.4725 5.78926 12.4646 5.81116L12.2361 6.46683C12.0938 6.87815 11.8318 7.29827 11.4609 7.71136C11.4363 7.73772 11.4082 7.74475 11.3889 7.74651C11.3695 7.74827 11.3396 7.74475 11.3133 7.72015C11.2887 7.69905 11.2764 7.66741 11.2781 7.63577C11.3432 6.57757 11.0268 5.38401 10.3342 4.08499C9.76113 3.00569 8.96484 2.1637 7.96992 1.57659L7.24395 1.14944C7.14902 1.09319 7.02773 1.16702 7.03301 1.27776L7.07168 2.12151C7.09805 2.69807 7.03125 3.20784 6.87305 3.63147C6.67969 4.15003 6.40195 4.63167 6.04688 5.06409C5.79977 5.36461 5.51969 5.63643 5.21191 5.87444C4.47065 6.44426 3.86791 7.1744 3.44883 8.01018C3.03077 8.85325 2.81301 9.78146 2.8125 10.7225C2.8125 11.5522 2.97598 12.3555 3.29941 13.1131C3.61172 13.8425 4.06241 14.5046 4.62656 15.0625C5.19609 15.625 5.85703 16.068 6.59355 16.3756C7.35645 16.6955 8.16504 16.8573 9 16.8573C9.83496 16.8573 10.6436 16.6955 11.4064 16.3774C12.1412 16.0716 12.8093 15.6256 13.3734 15.0643C13.943 14.5018 14.3895 13.8444 14.7006 13.1149C15.0235 12.3593 15.1892 11.5459 15.1875 10.7242C15.1875 9.86643 15.0117 9.03323 14.6619 8.24749ZM12.5332 14.2117C11.5893 15.1469 10.3359 15.6602 9 15.6602C7.66406 15.6602 6.41074 15.1469 5.4668 14.2117C4.52637 13.2783 4.00781 12.0408 4.00781 10.7242C4.00781 9.9596 4.18008 9.22659 4.51934 8.54456C4.8498 7.87835 5.34199 7.28245 5.93965 6.82366C6.32081 6.5322 6.66652 6.19711 6.96973 5.82522C7.40918 5.28909 7.75371 4.69143 7.99277 4.04983C8.09084 3.78517 8.16209 3.51134 8.20547 3.23245C8.6291 3.62268 8.98418 4.09378 9.28125 4.64573C9.86836 5.74612 10.1391 6.72522 10.0863 7.55843C10.0737 7.75466 10.1058 7.9512 10.1801 8.13327C10.2544 8.31533 10.3689 8.47819 10.5152 8.6096C10.642 8.72411 10.7903 8.8123 10.9514 8.86903C11.1125 8.92576 11.2834 8.94991 11.4539 8.94007C11.8002 8.92249 12.1184 8.76956 12.3504 8.51116C12.5842 8.24925 12.7863 7.98206 12.9551 7.7096C13.2012 8.02425 13.4068 8.36702 13.5703 8.73616C13.8498 9.36546 13.9922 10.0352 13.9922 10.7242C13.9922 12.0408 13.4736 13.2801 12.5332 14.2117Z" fill="#FFC148"/>
</svg>
