<svg width="111" height="73" viewBox="0 0 111 73" fill="none" xmlns="http://www.w3.org/2000/svg">
<path d="M6.79592 73V67.0581C16.3291 61.6822 22.5587 56.8249 25.4847 52.4864C28.5051 48.0536 30.0153 42.9606 30.0153 37.2074C30.0153 34.5665 29.5434 32.5859 28.5995 31.2655C27.5612 29.9451 26.4286 29.2849 25.2015 29.2849C24.2577 29.2849 22.7474 29.6621 20.6709 30.4167C18.5944 31.1712 16.5179 31.5484 14.4413 31.5484C10.477 31.5484 7.07908 30.1337 4.24745 27.3043C1.41582 24.4748 0 21.0323 0 16.9767C0 12.4496 1.79337 8.48837 5.3801 5.09302C9.06122 1.69767 13.4974 0 18.6888 0C24.9184 0 30.5344 2.68798 35.537 8.06395C40.6339 13.4399 43.1824 20.2306 43.1824 28.436C43.1824 38.3391 39.9732 47.3934 33.5548 55.5988C27.2309 63.8043 18.3112 69.6046 6.79592 73ZM74.3304 73V67.0581C82.5421 62.814 88.4413 58.334 92.0281 53.6182C95.7092 48.8081 97.5497 43.6208 97.5497 38.0562C97.5497 34.7552 97.0778 32.4444 96.1339 31.124C95.19 29.8979 94.1518 29.2849 93.0191 29.2849C91.7921 29.2849 90.1403 29.6621 88.0638 30.4167C85.8929 31.1712 84.0051 31.5484 82.4005 31.5484C78.5306 31.5484 75.1326 30.0866 72.2066 27.1628C69.375 24.239 67.9592 20.7494 67.9592 16.6938C67.9592 12.1667 69.7054 8.25258 73.1977 4.95155C76.69 1.65052 80.9847 0 86.0816 0C92.5 0 98.2576 2.7823 103.355 8.3469C108.452 13.8172 111 20.5607 111 28.5775C111 38.009 107.838 46.8275 101.514 55.0329C95.2844 63.1441 86.2232 69.1331 74.3304 73Z" fill="white"/>
</svg>
